# xmcd
#
# Track frame offsets: 
#        150
#        18596
#        38880
#        57605
#        85720
#        105057
#        122974
#        143621
#        162123
#        179872
#        202804
#        221389
#        239807
#        259570
#        259871
#        277237
#        294621
#
# Disc length: 4139 seconds
#
# Revision: 1
# Processed by: cddbd v1.5.2PL0 Copyright (c) Steve Scherf et al.
# Submitted via: ExactAudioCopy v1.3
#
DISCID=00102911
DTITLE=Mr. Shadow - Born Without A Konscience
DYEAR=1999
DGENRE=Gangsta
TTITLE0=Born Without A Konscience
TTITLE1=Stalker Of The Night
TTITLE2=Take Yo Bitch (feat. Mr. Lil One)
TTITLE3=Freaky (feat. Young Sicc, Droopy)
TTITLE4=Party Goes On
TTITLE5=One Man Batallion
TTITLE6=Don't Stop Now (Keep Bangin) (feat. Young Sicc)
TTITLE7=My Krime Payz
TTITLE8=Da Mistahs (feat. Mr. Lil One)
TTITLE9=Smokerz Groove (feat. Galo)
TTITLE10=Negative Behavior (feat. GPA)
TTITLE11=My Strategy
TTITLE12=Evil Deedz
TTITLE13=X
TTITLE14=Put It Down (feat. Bounz)
TTITLE15=Kali (feat. Droopy)
TTITLE16=Shaking In Your Bootz (feat. GPA, Mr. Lil One)
EXTD=
EXTT0=
EXTT1=
EXTT2=
EXTT3=
EXTT4=
EXTT5=
EXTT6=
EXTT7=
EXTT8=
EXTT9=
EXTT10=
EXTT11=
EXTT12=
EXTT13=
EXTT14=
EXTT15=
EXTT16=
PLAYORDER=
